<svg xmlns="http://www.w3.org/2000/svg" viewBox="0 0 200 200" width="200" height="200">
  <!-- Tongue shape -->
  <path d="M 60 80 Q 50 120, 70 150 Q 100 170, 130 150 Q 150 120, 140 80 Q 100 60, 60 80" fill="#E57373"/>
  <path d="M 70 85 Q 65 115, 80 140 Q 100 155, 120 140 Q 135 115, 130 85 Q 100 70, 70 85" fill="#EF9A9A"/>

  <!-- Ice cream cone -->
  <path d="M 85 50 L 75 25 L 95 25 Z" fill="#F4E4C1"/>
  <path d="M 75 25 L 85 25 L 80 15 Z" fill="#E8D4A8"/>
  <path d="M 85 25 L 95 25 L 90 15 Z" fill="#E8D4A8"/>

  <!-- Ice cream scoop -->
  <circle cx="85" cy="25" r="18" fill="#FFF9C4"/>
  <ellipse cx="85" cy="20" rx="12" ry="8" fill="#FFEB3B"/>

  <!-- Face -->
  <circle cx="75" cy="100" r="3" fill="#2C3E50"/>
  <circle cx="105" cy="100" r="3" fill="#2C3E50"/>
  <path d="M 80 110 Q 90 118, 100 110" fill="none" stroke="#2C3E50" stroke-width="2.5" stroke-linecap="round"/>

  <!-- Rosy cheeks -->
  <circle cx="65" cy="108" r="8" fill="#FF9999" opacity="0.5"/>
  <circle cx="115" cy="108" r="8" fill="#FF9999" opacity="0.5"/>

  <!-- Arms -->
  <path d="M 60 120 Q 50 130, 45 140" stroke="#2C3E50" stroke-width="3.5" stroke-linecap="round" fill="none"/>
  <path d="M 140 120 Q 150 130, 155 140" stroke="#2C3E50" stroke-width="3.5" stroke-linecap="round" fill="none"/>

  <!-- Legs -->
  <rect x="85" y="165" width="18" height="7" rx="3" fill="#2C3E50"/>
</svg>
