<svg xmlns="http://www.w3.org/2000/svg" viewBox="0 0 200 200" width="200" height="200">
  <!-- Nose shape -->
  <ellipse cx="100" cy="110" rx="22" ry="35" fill="#FFB6B9"/>
  <ellipse cx="100" cy="105" rx="18" ry="28" fill="#FFC9CC"/>

  <!-- Nostrils -->
  <ellipse cx="92" cy="125" rx="5" ry="7" fill="#E89BA3"/>
  <ellipse cx="108" cy="125" rx="5" ry="7" fill="#E89BA3"/>

  <!-- Face features -->
  <circle cx="90" cy="95" r="3" fill="#2C3E50"/>
  <circle cx="110" cy="95" r="3" fill="#2C3E50"/>
  <path d="M 93 105 Q 100 110, 107 105" fill="none" stroke="#2C3E50" stroke-width="2" stroke-linecap="round"/>

  <!-- Flower -->
  <line x1="135" y1="90" x2="135" y2="140" stroke="#5B8A4C" stroke-width="3"/>

  <!-- Flower petals -->
  <circle cx="125" cy="75" r="8" fill="#9DC8E8"/>
  <circle cx="145" cy="75" r="8" fill="#9DC8E8"/>
  <circle cx="125" cy="92" r="8" fill="#9DC8E8"/>
  <circle cx="145" cy="92" r="8" fill="#9DC8E8"/>
  <circle cx="135" cy="83.5" r="8" fill="#9DC8E8"/>

  <!-- Flower center -->
  <circle cx="135" cy="83.5" r="6" fill="#FFE87C"/>

  <!-- Arms -->
  <path d="M 75 130 Q 65 135, 58 142" stroke="#2C3E50" stroke-width="3.5" stroke-linecap="round" fill="none"/>
  <path d="M 125 130 Q 130 125, 135 115" stroke="#2C3E50" stroke-width="3.5" stroke-linecap="round" fill="none"/>

  <!-- Legs -->
  <rect x="92" y="160" width="16" height="7" rx="3" fill="#2C3E50"/>
</svg>
