<svg xmlns="http://www.w3.org/2000/svg" viewBox="0 0 200 200" width="200" height="200">
  <!-- Brain shape -->
  <path d="M 70 65 Q 50 75, 50 95 Q 50 115, 60 130 Q 70 145, 85 150 Q 100 155, 115 150 Q 130 145, 140 130 Q 150 115, 150 95 Q 150 75, 130 65 Q 110 55, 90 55 Q 75 55, 70 65" fill="#FFB6B9"/>

  <!-- Brain details/folds -->
  <path d="M 75 75 Q 80 80, 85 75 Q 90 70, 95 75" fill="none" stroke="#E89BA3" stroke-width="2" stroke-linecap="round"/>
  <path d="M 105 73 Q 110 78, 115 73 Q 120 68, 125 73" fill="none" stroke="#E89BA3" stroke-width="2" stroke-linecap="round"/>
  <path d="M 70 90 Q 75 95, 80 90 Q 85 85, 90 90" fill="none" stroke="#E89BA3" stroke-width="2" stroke-linecap="round"/>
  <path d="M 110 88 Q 115 93, 120 88 Q 125 83, 130 88" fill="none" stroke="#E89BA3" stroke-width="2" stroke-linecap="round"/>
  <path d="M 75 105 Q 82 110, 88 105 Q 94 100, 100 105" fill="none" stroke="#E89BA3" stroke-width="2" stroke-linecap="round"/>
  <path d="M 105 103 Q 112 108, 118 103 Q 124 98, 130 103" fill="none" stroke="#E89BA3" stroke-width="2" stroke-linecap="round"/>
  <path d="M 80 120 Q 87 125, 93 120 Q 99 115, 105 120" fill="none" stroke="#E89BA3" stroke-width="2" stroke-linecap="round"/>
  <path d="M 110 118 Q 117 123, 123 118" fill="none" stroke="#E89BA3" stroke-width="2" stroke-linecap="round"/>
  <path d="M 85 135 Q 95 140, 105 135 Q 115 130, 120 135" fill="none" stroke="#E89BA3" stroke-width="2" stroke-linecap="round"/>

  <!-- Eyes -->
  <circle cx="85" cy="95" r="3" fill="#2C3E50"/>
  <circle cx="115" cy="95" r="3" fill="#2C3E50"/>

  <!-- Happy smile -->
  <path d="M 85 110 Q 100 120, 115 110" fill="none" stroke="#2C3E50" stroke-width="2.5" stroke-linecap="round"/>

  <!-- Rosy cheeks -->
  <circle cx="70" cy="105" r="8" fill="#FF9999" opacity="0.5"/>
  <circle cx="130" cy="105" r="8" fill="#FF9999" opacity="0.5"/>

  <!-- Arms holding dumbbells -->
  <path d="M 45 105 Q 35 110, 30 115" stroke="#2C3E50" stroke-width="3.5" stroke-linecap="round" fill="none"/>
  <rect x="20" y="108" width="12" height="16" rx="2" fill="#5B9BD5"/>
  <rect x="18" y="106" width="16" height="4" rx="2" fill="#2C3E50"/>
  <rect x="18" y="122" width="16" height="4" rx="2" fill="#2C3E50"/>

  <path d="M 155 105 Q 165 110, 170 115" stroke="#2C3E50" stroke-width="3.5" stroke-linecap="round" fill="none"/>
  <rect x="168" y="108" width="12" height="16" rx="2" fill="#5B9BD5"/>
  <rect x="166" y="106" width="16" height="4" rx="2" fill="#2C3E50"/>
  <rect x="166" y="122" width="16" height="4" rx="2" fill="#2C3E50"/>

  <!-- Legs -->
  <rect x="85" y="165" width="12" height="7" rx="3" fill="#2C3E50"/>
  <rect x="103" y="165" width="12" height="7" rx="3" fill="#2C3E50"/>
</svg>
